<svg xmlns="http://www.w3.org/2000/svg" xmlns:xlink="http://www.w3.org/1999/xlink" width="660" height="537.62"><title>audit-x demo</title><rect width="660" height="537.62" rx="5" ry="5" class="a"/><svg y="0%" x="0%"><circle cx="20" cy="20" r="6" fill="#ff5f58"/><circle cx="40" cy="20" r="6" fill="#ffbd2e"/><circle cx="60" cy="20" r="6" fill="#18c132"/></svg><svg height="477.62" viewBox="0 0 62 47.762" width="620" x="15" xmlns="http://www.w3.org/2000/svg" xmlns:xlink="http://www.w3.org/1999/xlink" y="50"><style>@keyframes o{0%{transform:translateX(-62px)}7.07%{transform:translateX(-124px)}9.98%{transform:translateX(-186px)}10.48%{transform:translateX(-248px)}14.52%{transform:translateX(-310px)}17.79%{transform:translateX(-372px)}18.42%{transform:translateX(-434px)}20.93%{transform:translateX(-496px)}21.83%{transform:translateX(-558px)}22.59%{transform:translateX(-620px)}23.98%{transform:translateX(-682px)}25.33%{transform:translateX(-744px)}26.06%{transform:translateX(-806px)}26.77%{transform:translateX(-868px)}28.57%{transform:translateX(-930px)}52.67%{transform:translateX(-992px)}65.49%{transform:translateX(-1302px)}65.5%{transform:translateX(-1736px)}65.51%{transform:translateX(-1860px)}65.53%{transform:translateX(-1922px)}to{transform:translateX(-1984px)}}.a{fill:#282d35}.f{fill:#b9c0cb}.g{fill:#e88388}.h{fill:#6f7783}.i{fill:#dbab79}.j{fill:#d290e4}.k{fill:#66c2cd}</style><g font-size="1.67" font-family="Monaco,Consolas,Menlo,'Bitstream Vera Sans Mono','Powerline Symbols',monospace"><defs><symbol id="1"><text y="1.67" class="f">$</text></symbol><symbol id="2"><text y="1.67" class="f">$</text><text x="2.004" y="1.67" class="f">npx</text></symbol><symbol id="3"><text y="1.67" class="f">$</text><text x="2.004" y="1.67" class="f">npx</text><text x="6.012" y="1.67" class="f">audit-age</text></symbol><symbol id="4"><text y="1.67" class="f">Fetching</text><text x="9.018" y="1.67" class="f">26</text><text x="12.024" y="1.67" class="f">package</text><text x="20.04" y="1.67" class="f">ages...</text></symbol><symbol id="5"><text x="49.098" y="1.67" class="g">3</text><text x="51.102" y="1.67" class="g">years</text><text x="57.114" y="1.67" class="g">ago</text></symbol><symbol id="6"><text x="1.002" y="1.67" class="f">fnv1a@1.0.1</text><text x="40.08" y="1.67" class="f">Nov</text><text x="44.088" y="1.67" class="f">18,</text><text x="48.096" y="1.67" class="f">2015</text><text x="53.106" y="1.67" class="f">2:02</text><text x="58.116" y="1.67" class="f">AM</text></symbol><symbol id="7"><text y="1.67" class="h">──────────────────────────────────────────────────────────────</text></symbol><symbol id="8"><text x="1.002" y="1.67" class="f">prop-types@15.6.1</text></symbol><symbol id="9"><text x="1.002" y="1.67" class="f">└─</text><text x="4.008" y="1.67" class="f">fbjs@0.8.16</text></symbol><symbol id="10"><text x="4.008" y="1.67" class="f">└─</text><text x="7.014" y="1.67" class="f">isomorphic-fetch@2.2.1</text></symbol><symbol id="11"><text x="7.014" y="1.67" class="f">└─</text><text x="10.02" y="1.67" class="f">node-fetch@1.7.3</text><text x="49.098" y="1.67" class="g">2</text><text x="51.102" y="1.67" class="g">years</text><text x="57.114" y="1.67" class="g">ago</text></symbol><symbol id="12"><text x="10.02" y="1.67" class="f">└─</text><text x="13.026" y="1.67" class="f">encoding@0.1.12</text><text x="40.08" y="1.67" class="f">Dec</text><text x="44.088" y="1.67" class="f">23,</text><text x="48.096" y="1.67" class="f">2015</text><text x="53.106" y="1.67" class="f">8:06</text><text x="58.116" y="1.67" class="f">PM</text></symbol><symbol id="13"><text x="1.002" y="1.67" class="f">└─</text><text x="4.008" y="1.67" class="f">fb</text></symbol><symbol id="14"><text x="1.002" y="1.67" class="f">└─</text><text x="4.008" y="1.67" class="f">fbjs@0.8.16</text><text x="49.098" y="1.67" class="g">2</text><text x="51.102" y="1.67" class="g">years</text><text x="57.114" y="1.67" class="g">ago</text></symbol><symbol id="15"><text x="4.008" y="1.67" class="f">└─</text><text x="7.014" y="1.67" class="f">isomorphic-fetch@2.2.1</text><text x="40.08" y="1.67" class="f">Jan</text><text x="44.088" y="1.67" class="f">15,</text><text x="48.096" y="1.67" class="f">2016</text><text x="53.106" y="1.67" class="f">8:27</text><text x="58.116" y="1.67" class="f">PM</text></symbol><symbol id="16"><text x="10.02" y="1.67" class="f">└─</text><text x="13.026" y="1.67" class="f">is-stream@1.1.0</text><text x="40.08" y="1.67" class="f">Apr</text><text x="44.088" y="1.67" class="f">12,</text><text x="48.096" y="1.67" class="f">2016</text><text x="53.106" y="1.67" class="f">5:41</text><text x="58.116" y="1.67" class="f">PM</text></symbol><symbol id="17"><text x="4.008" y="1.67" class="f">└─</text><text x="7.014" y="1.67" class="f">core-js@1.2.7</text><text x="40.08" y="1.67" class="f">Jul</text><text x="44.088" y="1.67" class="f">18,</text><text x="48.096" y="1.67" class="f">2016</text><text x="53.106" y="1.67" class="f">7:22</text><text x="58.116" y="1.67" class="f">AM</text></symbol><symbol id="18"><text x="4.008" y="1.67" class="f">└─</text><text x="7.014" y="1.67" class="f">setimmediate@1.0.5</text><text x="39.078" y="1.67" class="f">Sep</text><text x="43.086" y="1.67" class="f">12,</text><text x="47.094" y="1.67" class="f">2016</text><text x="52.104" y="1.67" class="f">10:59</text><text x="58.116" y="1.67" class="f">AM</text></symbol><symbol id="19"><text x="1.002" y="1.67" class="f">└─</text><text x="4.008" y="1.67" class="f">fbjs@0.8.16</text><text x="50.1" y="1.67" class="g">a</text><text x="52.104" y="1.67" class="g">year</text><text x="57.114" y="1.67" class="g">ago</text></symbol><symbol id="20"><text x="4.008" y="1.67" class="f">└─</text><text x="7.014" y="1.67" class="f">loose-envify@1.3.1</text><text x="39.078" y="1.67" class="f">Jan</text><text x="43.086" y="1.67" class="f">16,</text><text x="47.094" y="1.67" class="f">2017</text><text x="52.104" y="1.67" class="f">12:23</text><text x="58.116" y="1.67" class="f">AM</text></symbol><symbol id="21"><text x="1.002" y="1.67" class="f">prop-types@15.6.1</text><text x="50.1" y="1.67" class="g">a</text><text x="52.104" y="1.67" class="g">year</text><text x="57.114" y="1.67" class="g">ago</text></symbol><symbol id="22"><text x="1.002" y="1.67" class="f">└─</text><text x="4.008" y="1.67" class="f">loose-envify@1.3.1</text><text x="39.078" y="1.67" class="f">Jan</text><text x="43.086" y="1.67" class="f">16,</text><text x="47.094" y="1.67" class="f">2017</text><text x="52.104" y="1.67" class="f">12:23</text><text x="58.116" y="1.67" class="f">AM</text></symbol><symbol id="23"><text x="50.1" y="1.67" class="g">a</text><text x="52.104" y="1.67" class="g">year</text><text x="57.114" y="1.67" class="g">ago</text></symbol><symbol id="24"><text x="1.002" y="1.67" class="f">object-assign@4.1.1</text><text x="40.08" y="1.67" class="f">Jan</text><text x="44.088" y="1.67" class="f">17,</text><text x="48.096" y="1.67" class="f">2017</text><text x="53.106" y="1.67" class="f">2:35</text><text x="58.116" y="1.67" class="f">AM</text></symbol><symbol id="25"><text x="4.008" y="1.67" class="f">└─</text><text x="7.014" y="1.67" class="f">object-assign@4.1.1</text><text x="40.08" y="1.67" class="f">Jan</text><text x="44.088" y="1.67" class="f">17,</text><text x="48.096" y="1.67" class="f">2017</text><text x="53.106" y="1.67" class="f">2:35</text><text x="58.116" y="1.67" class="f">AM</text></symbol><symbol id="26"><text x="1.002" y="1.67" class="f">└─</text><text x="4.008" y="1.67" class="f">object-assign@4.1.1</text><text x="40.08" y="1.67" class="f">Jan</text><text x="44.088" y="1.67" class="f">17,</text><text x="48.096" y="1.67" class="f">2017</text><text x="53.106" y="1.67" class="f">2:35</text><text x="58.116" y="1.67" class="f">AM</text></symbol><symbol id="27"><text x="1.002" y="1.67" class="f">└─</text><text x="4.008" y="1.67" class="f">fbjs@0.8.16</text><text x="50.1" y="1.67" class="i">a</text><text x="52.104" y="1.67" class="i">year</text><text x="57.114" y="1.67" class="i">ago</text></symbol><symbol id="28"><text x="4.008" y="1.67" class="f">└─</text><text x="7.014" y="1.67" class="f">promise@7.3.1</text><text x="40.08" y="1.67" class="f">Jun</text><text x="44.088" y="1.67" class="f">20,</text><text x="48.096" y="1.67" class="f">2017</text><text x="53.106" y="1.67" class="f">8:15</text><text x="58.116" y="1.67" class="f">AM</text></symbol><symbol id="29"><text x="1.002" y="1.67" class="f">└─</text><text x="4.008" y="1.67" class="f">loose-envify@1.3.1</text><text x="50.1" y="1.67" class="i">a</text><text x="52.104" y="1.67" class="i">year</text><text x="57.114" y="1.67" class="i">ago</text></symbol><symbol id="30"><text x="4.008" y="1.67" class="f">└─</text><text x="7.014" y="1.67" class="f">js-tokens@3.0.2</text><text x="40.08" y="1.67" class="f">Jun</text><text x="44.088" y="1.67" class="f">29,</text><text x="48.096" y="1.67" class="f">2017</text><text x="53.106" y="1.67" class="f">6:54</text><text x="58.116" y="1.67" class="f">AM</text></symbol><symbol id="31"><text x="4.008" y="1.67" class="f">└─</text><text x="7.014" y="1.67" class="f">promise@7.3.1</text><text x="50.1" y="1.67" class="i">a</text><text x="52.104" y="1.67" class="i">year</text><text x="57.114" y="1.67" class="i">ago</text></symbol><symbol id="32"><text x="7.014" y="1.67" class="f">└─</text><text x="10.02" y="1.67" class="f">asap@2.0.6</text><text x="40.08" y="1.67" class="f">Jul</text><text x="44.088" y="1.67" class="f">11,</text><text x="48.096" y="1.67" class="f">2017</text><text x="53.106" y="1.67" class="f">1:21</text><text x="58.116" y="1.67" class="f">AM</text></symbol><symbol id="33"><text x="4.008" y="1.67" class="f">└─</text><text x="7.014" y="1.67" class="f">isomorphic-fetch@2.2.1</text><text x="48.096" y="1.67" class="i">9</text><text x="50.1" y="1.67" class="i">months</text><text x="57.114" y="1.67" class="i">ago</text></symbol><symbol id="34"><text x="7.014" y="1.67" class="f">└─</text><text x="10.02" y="1.67" class="f">node-fetch@1.7.3</text><text x="41.082" y="1.67" class="f">Sep</text><text x="45.09" y="1.67" class="f">8,</text><text x="48.096" y="1.67" class="f">2017</text><text x="53.106" y="1.67" class="f">4:28</text><text x="58.116" y="1.67" class="f">PM</text></symbol><symbol id="35"><text x="1.002" y="1.67" class="f">prop-types@15.6.1</text><text x="48.096" y="1.67" class="i">8</text><text x="50.1" y="1.67" class="i">months</text><text x="57.114" y="1.67" class="i">ago</text></symbol><symbol id="36"><text x="1.002" y="1.67" class="f">└─</text><text x="4.008" y="1.67" class="f">fbjs@0.8.16</text><text x="40.08" y="1.67" class="f">Sep</text><text x="44.088" y="1.67" class="f">26,</text><text x="48.096" y="1.67" class="f">2017</text><text x="53.106" y="1.67" class="f">9:17</text><text x="58.116" y="1.67" class="f">AM</text></symbol><symbol id="37"><text x="1.002" y="1.67" class="f">extract-files@3.1.0</text></symbol><symbol id="38"><text x="1.002" y="1.67" class="f">└─</text><text x="4.008" y="1.67" class="f">@babel/runtime@7.0.0-beta.49</text><text x="48.096" y="1.67" class="i">6</text><text x="50.1" y="1.67" class="i">months</text><text x="57.114" y="1.67" class="i">ago</text></symbol><symbol id="39"><text x="4.008" y="1.67" class="f">└─</text><text x="7.014" y="1.67" class="f">regenerator-runtime@0.11.1</text><text x="41.082" y="1.67" class="f">Dec</text><text x="45.09" y="1.67" class="f">8,</text><text x="48.096" y="1.67" class="f">2017</text><text x="53.106" y="1.67" class="f">6:36</text><text x="58.116" y="1.67" class="f">AM</text></symbol><symbol id="40"><text x="48.096" y="1.67" class="i">4</text><text x="50.1" y="1.67" class="i">months</text><text x="57.114" y="1.67" class="i">ago</text></symbol><symbol id="41"><text x="1.002" y="1.67" class="f">extract-files@3.1.0</text><text x="40.08" y="1.67" class="f">Jan</text><text x="44.088" y="1.67" class="f">28,</text><text x="48.096" y="1.67" class="f">2018</text><text x="53.106" y="1.67" class="f">2:23</text><text x="58.116" y="1.67" class="f">PM</text></symbol><symbol id="42"><text x="48.096" y="1.67" class="i">3</text><text x="50.1" y="1.67" class="i">months</text><text x="57.114" y="1.67" class="i">ago</text></symbol><symbol id="43"><text x="1.002" y="1.67" class="f">prop-types@15.6.1</text><text x="40.08" y="1.67" class="f">Feb</text><text x="44.088" y="1.67" class="f">27,</text><text x="48.096" y="1.67" class="f">2018</text><text x="53.106" y="1.67" class="f">9:51</text><text x="58.116" y="1.67" class="f">AM</text></symbol><symbol id="44"><text x="4.008" y="1.67" class="f">└─</text><text x="7.014" y="1.67" class="f">isomorphic-fetch@2.2.1</text><text x="48.096" y="1.67" class="i">2</text><text x="50.1" y="1.67" class="i">months</text><text x="57.114" y="1.67" class="i">ago</text></symbol><symbol id="45"><text x="7.014" y="1.67" class="f">└─</text><text x="10.02" y="1.67" class="f">whatwg-fetch@2.0.4</text><text x="39.078" y="1.67" class="f">Mar</text><text x="43.086" y="1.67" class="f">30,</text><text x="47.094" y="1.67" class="f">2018</text><text x="52.104" y="1.67" class="f">10:23</text><text x="58.116" y="1.67" class="f">PM</text></symbol><symbol id="46"><text x="7.014" y="1.67" class="f">└─</text><text x="10.02" y="1.67" class="f">node-fetch@1.7.3</text></symbol><symbol id="47"><text x="10.02" y="1.67" class="f">└─</text><text x="13.026" y="1.67" class="f">encoding@0.1.12</text></symbol><symbol id="48"><text x="13.026" y="1.67" class="f">└─</text><text x="16.032" y="1.67" class="f">iconv-lite@0.4.23</text><text x="48.096" y="1.67" class="i">2</text><text x="50.1" y="1.67" class="i">months</text><text x="57.114" y="1.67" class="i">ago</text></symbol><symbol id="49"><text x="16.032" y="1.67" class="f">└─</text><text x="19.038" y="1.67" class="f">safer-buffer@2.1.2</text><text x="41.082" y="1.67" class="f">Apr</text><text x="45.09" y="1.67" class="f">8,</text><text x="48.096" y="1.67" class="f">2018</text><text x="53.106" y="1.67" class="f">8:42</text><text x="58.116" y="1.67" class="f">PM</text></symbol><symbol id="50"><text x="49.098" y="1.67" class="i">a</text><text x="51.102" y="1.67" class="i">month</text><text x="57.114" y="1.67" class="i">ago</text></symbol><symbol id="51"><text x="1.002" y="1.67" class="f">fast-deep-equal@2.0.1</text><text x="40.08" y="1.67" class="f">Apr</text><text x="44.088" y="1.67" class="f">28,</text><text x="48.096" y="1.67" class="f">2018</text><text x="53.106" y="1.67" class="f">8:03</text><text x="58.116" y="1.67" class="f">PM</text></symbol><symbol id="52"><text x="1.002" y="1.67" class="f">└─</text><text x="4.008" y="1.67" class="f">fbjs@0.8.16</text><text x="49.098" y="1.67" class="j">a</text><text x="51.102" y="1.67" class="j">month</text><text x="57.114" y="1.67" class="j">ago</text></symbol><symbol id="53"><text x="4.008" y="1.67" class="f">└─</text><text x="7.014" y="1.67" class="f">ua-parser-js@0.7.18</text><text x="41.082" y="1.67" class="f">May</text><text x="45.09" y="1.67" class="f">5,</text><text x="48.096" y="1.67" class="f">2018</text><text x="53.106" y="1.67" class="f">2:18</text><text x="58.116" y="1.67" class="f">AM</text></symbol><symbol id="54"><text x="10.02" y="1.67" class="f">└─</text><text x="13.026" y="1.67" class="f">encoding@0.1.12</text><text x="49.098" y="1.67" class="j">23</text><text x="52.104" y="1.67" class="j">days</text><text x="57.114" y="1.67" class="j">ago</text></symbol><symbol id="55"><text x="13.026" y="1.67" class="f">└─</text><text x="16.032" y="1.67" class="f">iconv-lite@0.4.23</text><text x="41.082" y="1.67" class="f">May</text><text x="45.09" y="1.67" class="f">8,</text><text x="48.096" y="1.67" class="f">2018</text><text x="53.106" y="1.67" class="f">8:22</text><text x="58.116" y="1.67" class="f">AM</text></symbol><symbol id="56"><text x="1.002" y="1.67" class="f">extract-files@3.1.0</text><text x="50.1" y="1.67" class="k">6</text><text x="52.104" y="1.67" class="k">days</text><text x="57.114" y="1.67" class="k">ago</text></symbol><symbol id="57"><text x="1.002" y="1.67" class="f">└─</text><text x="4.008" y="1.67" class="f">@babel/runtime@7.0.0-beta.49</text><text x="40.08" y="1.67" class="f">May</text><text x="44.088" y="1.67" class="f">26,</text><text x="48.096" y="1.67" class="f">2018</text><text x="53.106" y="1.67" class="f">2:00</text><text x="58.116" y="1.67" class="f">AM</text></symbol><symbol id="58"><text x="1.002" y="1.67" class="f">└─</text><text x="4.008" y="1.67" class="f">@babel/runtime@7.0.0-beta.49</text><text x="50.1" y="1.67" class="k">5</text><text x="52.104" y="1.67" class="k">days</text><text x="57.114" y="1.67" class="k">ago</text></symbol><symbol id="59"><text x="4.008" y="1.67" class="f">└─</text><text x="7.014" y="1.67" class="f">core-js@2.5.7</text><text x="40.08" y="1.67" class="f">May</text><text x="44.088" y="1.67" class="f">26,</text><text x="48.096" y="1.67" class="f">2018</text><text x="53.106" y="1.67" class="f">9:41</text><text x="58.116" y="1.67" class="f">PM</text></symbol><symbol id="60"><text x="1.002" y="1.67" class="g">Year+</text><text x="8.016" y="1.67" class="f">11</text></symbol><symbol id="61"><text x="2.004" y="1.67" class="i">Year</text><text x="8.016" y="1.67" class="f">11</text></symbol><symbol id="62"><text x="1.002" y="1.67" class="j">Month</text><text x="9.018" y="1.67" class="f">2</text></symbol><symbol id="63"><text x="2.004" y="1.67" class="k">Week</text><text x="9.018" y="1.67" class="f">2</text></symbol><symbol id="64"><text x="3.006" y="1.67" fill="#a8cc8c">Day</text><text x="9.018" y="1.67" class="f">0</text></symbol><symbol id="65"><text y="1.67" class="f">Audited</text><text x="8.016" y="1.67" class="f">26</text><text x="11.022" y="1.67" class="f">package</text><text x="19.038" y="1.67" class="f">ages</text><text x="24.048" y="1.67" class="f">in</text><text x="27.054" y="1.67" class="f">6.455s.</text></symbol><symbol id="a"><path fill="transparent" d="M0 0h62v22H0z"/></symbol><symbol id="b"><path fill="#6f7683" d="M0 0h1.102v2.171H0z"/></symbol></defs><path class="a" d="M0 0h62v47.762H0z"/><g style="animation-duration:17.828318999999993s;animation-iteration-count:infinite;animation-name:o;animation-timing-function:steps(1,end)"><svg width="2046"><svg><use xlink:href="#a"/><use xlink:href="#b" x="-.004"/></svg><svg x="62"><use xlink:href="#a"/><use xlink:href="#b" x="1.996"/><use xlink:href="#1"/></svg><svg x="124"><use xlink:href="#a"/><use xlink:href="#b" x="2.996"/><text y="1.67" class="f">$</text><text x="2.004" y="1.67" class="f">n</text></svg><svg x="186"><use xlink:href="#a"/><use xlink:href="#b" x="3.996"/><text y="1.67" class="f">$</text><text x="2.004" y="1.67" class="f">np</text></svg><svg x="248"><use xlink:href="#a"/><use xlink:href="#b" x="4.996"/><use xlink:href="#2"/></svg><svg x="310"><use xlink:href="#a"/><use xlink:href="#b" x="5.996"/><use xlink:href="#2"/></svg><svg x="372"><use xlink:href="#a"/><use xlink:href="#b" x="6.996"/><text y="1.67" class="f">$</text><text x="2.004" y="1.67" class="f">npx</text><text x="6.012" y="1.67" class="f">a</text></svg><svg x="434"><use xlink:href="#a"/><use xlink:href="#b" x="7.996"/><text y="1.67" class="f">$</text><text x="2.004" y="1.67" class="f">npx</text><text x="6.012" y="1.67" class="f">au</text></svg><svg x="496"><use xlink:href="#a"/><use xlink:href="#b" x="8.996"/><text y="1.67" class="f">$</text><text x="2.004" y="1.67" class="f">npx</text><text x="6.012" y="1.67" class="f">aud</text></svg><svg x="558"><use xlink:href="#a"/><use xlink:href="#b" x="9.996"/><text y="1.67" class="f">$</text><text x="2.004" y="1.67" class="f">npx</text><text x="6.012" y="1.67" class="f">audi</text></svg><svg x="620"><use xlink:href="#a"/><use xlink:href="#b" x="10.996"/><text y="1.67" class="f">$</text><text x="2.004" y="1.67" class="f">npx</text><text x="6.012" y="1.67" class="f">audit</text></svg><svg x="682"><use xlink:href="#a"/><use xlink:href="#b" x="11.996"/><text y="1.67" class="f">$</text><text x="2.004" y="1.67" class="f">npx</text><text x="6.012" y="1.67" class="f">audit-</text></svg><svg x="744"><use xlink:href="#a"/><use xlink:href="#b" x="12.996"/><text y="1.67" class="f">$</text><text x="2.004" y="1.67" class="f">npx</text><text x="6.012" y="1.67" class="f">audit-a</text></svg><svg x="806"><use xlink:href="#a"/><use xlink:href="#b" x="13.996"/><text y="1.67" class="f">$</text><text x="2.004" y="1.67" class="f">npx</text><text x="6.012" y="1.67" class="f">audit-ag</text></svg><svg x="868"><use xlink:href="#a"/><use xlink:href="#b" x="14.996"/><use xlink:href="#3"/></svg><svg x="930"><use xlink:href="#a"/><use xlink:href="#b" x="-.004" y="2.146"/><use xlink:href="#3"/></svg><svg x="992"><use xlink:href="#a"/><use xlink:href="#b" x="-.004" y="8.659"/><use xlink:href="#3"/><use xlink:href="#4" y="4.342"/></svg><svg x="1054"><use xlink:href="#a"/><use xlink:href="#b" x="5.996" y="30.369"/><use xlink:href="#3"/><use xlink:href="#4" y="4.342"/><use xlink:href="#5" y="8.684"/><use xlink:href="#6" y="10.855"/><use xlink:href="#7" y="13.026"/><use xlink:href="#8" y="15.197"/><use xlink:href="#9" y="17.368"/><use xlink:href="#10" y="19.539"/><use xlink:href="#11" y="21.71"/><use xlink:href="#12" y="23.881"/><use xlink:href="#7" y="26.052"/><use xlink:href="#8" y="28.223"/><use xlink:href="#13" y="30.394"/></svg><svg x="1116"><use xlink:href="#a"/><use xlink:href="#b" x=".996" y="45.566"/><use xlink:href="#5" y="2.171"/><use xlink:href="#6" y="4.342"/><use xlink:href="#7" y="6.513"/><use xlink:href="#8" y="8.684"/><use xlink:href="#9" y="10.855"/><use xlink:href="#10" y="13.026"/><use xlink:href="#11" y="15.197"/><use xlink:href="#12" y="17.368"/><use xlink:href="#7" y="19.539"/><use xlink:href="#8" y="21.71"/><use xlink:href="#14" y="23.881"/><use xlink:href="#15" y="26.052"/><use xlink:href="#7" y="28.223"/><use xlink:href="#8" y="30.394"/><use xlink:href="#9" y="32.565"/><use xlink:href="#10" y="34.736"/><use xlink:href="#11" y="36.907"/><use xlink:href="#16" y="39.078"/><use xlink:href="#7" y="41.249"/><use xlink:href="#8" y="43.42"/></svg><svg x="1178"><use xlink:href="#a"/><use xlink:href="#b" x="42.996" y="45.566"/><use xlink:href="#7"/><use xlink:href="#8" y="2.171"/><use xlink:href="#14" y="4.342"/><use xlink:href="#15" y="6.513"/><use xlink:href="#7" y="8.684"/><use xlink:href="#8" y="10.855"/><use xlink:href="#9" y="13.026"/><use xlink:href="#10" y="15.197"/><use xlink:href="#11" y="17.368"/><use xlink:href="#16" y="19.539"/><use xlink:href="#7" y="21.71"/><use xlink:href="#8" y="23.881"/><use xlink:href="#14" y="26.052"/><use xlink:href="#17" y="28.223"/><use xlink:href="#7" y="30.394"/><use xlink:href="#8" y="32.565"/><use xlink:href="#14" y="34.736"/><use xlink:href="#18" y="36.907"/><use xlink:href="#7" y="39.078"/><use xlink:href="#8" y="41.249"/><use xlink:href="#19" y="43.42"/><text x="4.008" y="47.261" class="f">└─</text><text x="7.014" y="47.261" class="f">loose-envify@1.3.1</text><text x="39.078" y="47.261" class="f">Jan</text></svg><svg x="1240"><use xlink:href="#a"/><use xlink:href="#b" x="5.996" y="45.566"/><use xlink:href="#16"/><use xlink:href="#7" y="2.171"/><use xlink:href="#8" y="4.342"/><use xlink:href="#14" y="6.513"/><use xlink:href="#17" y="8.684"/><use xlink:href="#7" y="10.855"/><use xlink:href="#8" y="13.026"/><use xlink:href="#14" y="15.197"/><use xlink:href="#18" y="17.368"/><use xlink:href="#7" y="19.539"/><use xlink:href="#8" y="21.71"/><use xlink:href="#19" y="23.881"/><use xlink:href="#20" y="26.052"/><use xlink:href="#7" y="28.223"/><use xlink:href="#21" y="30.394"/><use xlink:href="#22" y="32.565"/><use xlink:href="#7" y="34.736"/><use xlink:href="#23" y="36.907"/><use xlink:href="#24" y="39.078"/><use xlink:href="#7" y="41.249"/><use xlink:href="#8" y="43.42"/><use xlink:href="#13" y="45.591"/></svg><svg x="1302"><use xlink:href="#a"/><use xlink:href="#b" x="20.996" y="45.566"/><use xlink:href="#7"/><use xlink:href="#8" y="2.171"/><use xlink:href="#19" y="4.342"/><use xlink:href="#20" y="6.513"/><use xlink:href="#7" y="8.684"/><use xlink:href="#21" y="10.855"/><use xlink:href="#22" y="13.026"/><use xlink:href="#7" y="15.197"/><use xlink:href="#23" y="17.368"/><use xlink:href="#24" y="19.539"/><use xlink:href="#7" y="21.71"/><use xlink:href="#8" y="23.881"/><use xlink:href="#19" y="26.052"/><use xlink:href="#25" y="28.223"/><use xlink:href="#7" y="30.394"/><use xlink:href="#21" y="32.565"/><use xlink:href="#26" y="34.736"/><use xlink:href="#7" y="36.907"/><use xlink:href="#8" y="39.078"/><use xlink:href="#27" y="41.249"/><use xlink:href="#28" y="43.42"/><text y="47.261" class="h">─────────────────────</text></svg><svg x="1364"><use xlink:href="#a"/><use xlink:href="#b" x="38.996" y="45.566"/><use xlink:href="#24"/><use xlink:href="#7" y="2.171"/><use xlink:href="#8" y="4.342"/><use xlink:href="#19" y="6.513"/><use xlink:href="#25" y="8.684"/><use xlink:href="#7" y="10.855"/><use xlink:href="#21" y="13.026"/><use xlink:href="#26" y="15.197"/><use xlink:href="#7" y="17.368"/><use xlink:href="#8" y="19.539"/><use xlink:href="#27" y="21.71"/><use xlink:href="#28" y="23.881"/><use xlink:href="#7" y="26.052"/><use xlink:href="#8" y="28.223"/><use xlink:href="#29" y="30.394"/><use xlink:href="#30" y="32.565"/><use xlink:href="#7" y="34.736"/><use xlink:href="#8" y="36.907"/><use xlink:href="#9" y="39.078"/><use xlink:href="#31" y="41.249"/><use xlink:href="#32" y="43.42"/><text y="47.261" class="h">───────────────────────────────────────</text></svg><svg x="1426"><use xlink:href="#a"/><use xlink:href="#b" x="54.996" y="45.566"/><use xlink:href="#8"/><use xlink:href="#27" y="2.171"/><use xlink:href="#28" y="4.342"/><use xlink:href="#7" y="6.513"/><use xlink:href="#8" y="8.684"/><use xlink:href="#29" y="10.855"/><use xlink:href="#30" y="13.026"/><use xlink:href="#7" y="15.197"/><use xlink:href="#8" y="17.368"/><use xlink:href="#9" y="19.539"/><use xlink:href="#31" y="21.71"/><use xlink:href="#32" y="23.881"/><use xlink:href="#7" y="26.052"/><use xlink:href="#8" y="28.223"/><use xlink:href="#9" y="30.394"/><use xlink:href="#33" y="32.565"/><use xlink:href="#34" y="34.736"/><use xlink:href="#7" y="36.907"/><use xlink:href="#35" y="39.078"/><use xlink:href="#36" y="41.249"/><use xlink:href="#7" y="43.42"/><use xlink:href="#37" y="45.591"/></svg><svg x="1488"><use xlink:href="#a"/><use xlink:href="#b" x="49.996" y="45.566"/><use xlink:href="#9"/><use xlink:href="#31" y="2.171"/><use xlink:href="#32" y="4.342"/><use xlink:href="#7" y="6.513"/><use xlink:href="#8" y="8.684"/><use xlink:href="#9" y="10.855"/><use xlink:href="#33" y="13.026"/><use xlink:href="#34" y="15.197"/><use xlink:href="#7" y="17.368"/><use xlink:href="#35" y="19.539"/><use xlink:href="#36" y="21.71"/><use xlink:href="#7" y="23.881"/><use xlink:href="#37" y="26.052"/><use xlink:href="#38" y="28.223"/><use xlink:href="#39" y="30.394"/><use xlink:href="#7" y="32.565"/><use xlink:href="#40" y="34.736"/><use xlink:href="#41" y="36.907"/><use xlink:href="#7" y="39.078"/><use xlink:href="#42" y="41.249"/><use xlink:href="#43" y="43.42"/><text y="47.261" class="h">──────────────────────────────────────────────────</text></svg><svg x="1550"><use xlink:href="#a"/><use xlink:href="#b" x=".996" y="45.566"/><use xlink:href="#37"/><use xlink:href="#38" y="2.171"/><use xlink:href="#39" y="4.342"/><use xlink:href="#7" y="6.513"/><use xlink:href="#40" y="8.684"/><use xlink:href="#41" y="10.855"/><use xlink:href="#7" y="13.026"/><use xlink:href="#42" y="15.197"/><use xlink:href="#43" y="17.368"/><use xlink:href="#7" y="19.539"/><use xlink:href="#8" y="21.71"/><use xlink:href="#9" y="23.881"/><use xlink:href="#44" y="26.052"/><use xlink:href="#45" y="28.223"/><use xlink:href="#7" y="30.394"/><use xlink:href="#8" y="32.565"/><use xlink:href="#9" y="34.736"/><use xlink:href="#10" y="36.907"/><use xlink:href="#46" y="39.078"/><use xlink:href="#47" y="41.249"/><use xlink:href="#48" y="43.42"/></svg><svg x="1612"><use xlink:href="#a"/><use xlink:href="#b" x="48.996" y="45.566"/><use xlink:href="#43"/><use xlink:href="#7" y="2.171"/><use xlink:href="#8" y="4.342"/><use xlink:href="#9" y="6.513"/><use xlink:href="#44" y="8.684"/><use xlink:href="#45" y="10.855"/><use xlink:href="#7" y="13.026"/><use xlink:href="#8" y="15.197"/><use xlink:href="#9" y="17.368"/><use xlink:href="#10" y="19.539"/><use xlink:href="#46" y="21.71"/><use xlink:href="#47" y="23.881"/><use xlink:href="#48" y="26.052"/><use xlink:href="#49" y="28.223"/><use xlink:href="#7" y="30.394"/><use xlink:href="#50" y="32.565"/><use xlink:href="#51" y="34.736"/><use xlink:href="#7" y="36.907"/><use xlink:href="#8" y="39.078"/><use xlink:href="#52" y="41.249"/><use xlink:href="#53" y="43.42"/><text y="47.261" class="h">─────────────────────────────────────────────────</text></svg><svg x="1674"><use xlink:href="#a"/><use xlink:href="#b" x="44.996" y="45.566"/><use xlink:href="#46"/><use xlink:href="#47" y="2.171"/><use xlink:href="#48" y="4.342"/><use xlink:href="#49" y="6.513"/><use xlink:href="#7" y="8.684"/><use xlink:href="#50" y="10.855"/><use xlink:href="#51" y="13.026"/><use xlink:href="#7" y="15.197"/><use xlink:href="#8" y="17.368"/><use xlink:href="#52" y="19.539"/><use xlink:href="#53" y="21.71"/><use xlink:href="#7" y="23.881"/><use xlink:href="#8" y="26.052"/><use xlink:href="#9" y="28.223"/><use xlink:href="#10" y="30.394"/><use xlink:href="#46" y="32.565"/><use xlink:href="#54" y="34.736"/><use xlink:href="#55" y="36.907"/><use xlink:href="#7" y="39.078"/><use xlink:href="#56" y="41.249"/><use xlink:href="#57" y="43.42"/><text y="47.261" class="h">─────────────────────────────────────────────</text></svg><svg x="1736"><use xlink:href="#a"/><use xlink:href="#b" x="-.004" y="45.566"/><use xlink:href="#51"/><use xlink:href="#7" y="2.171"/><use xlink:href="#8" y="4.342"/><use xlink:href="#52" y="6.513"/><use xlink:href="#53" y="8.684"/><use xlink:href="#7" y="10.855"/><use xlink:href="#8" y="13.026"/><use xlink:href="#9" y="15.197"/><use xlink:href="#10" y="17.368"/><use xlink:href="#46" y="19.539"/><use xlink:href="#54" y="21.71"/><use xlink:href="#55" y="23.881"/><use xlink:href="#7" y="26.052"/><use xlink:href="#56" y="28.223"/><use xlink:href="#57" y="30.394"/><use xlink:href="#7" y="32.565"/><use xlink:href="#37" y="34.736"/><use xlink:href="#58" y="36.907"/><use xlink:href="#59" y="39.078"/></svg><svg x="1798"><use xlink:href="#a"/><use xlink:href="#b" x="-.004" y="45.566"/><use xlink:href="#8"/><use xlink:href="#9" y="2.171"/><use xlink:href="#10" y="4.342"/><use xlink:href="#46" y="6.513"/><use xlink:href="#54" y="8.684"/><use xlink:href="#55" y="10.855"/><use xlink:href="#7" y="13.026"/><use xlink:href="#56" y="15.197"/><use xlink:href="#57" y="17.368"/><use xlink:href="#7" y="19.539"/><use xlink:href="#37" y="21.71"/><use xlink:href="#58" y="23.881"/><use xlink:href="#59" y="26.052"/><use xlink:href="#60" y="32.565"/><use xlink:href="#61" y="34.736"/><use xlink:href="#62" y="36.907"/><use xlink:href="#63" y="39.078"/><use xlink:href="#64" y="41.249"/></svg><svg x="1860"><use xlink:href="#a"/><use xlink:href="#b" x="-.004" y="45.566"/><use xlink:href="#10"/><use xlink:href="#46" y="2.171"/><use xlink:href="#54" y="4.342"/><use xlink:href="#55" y="6.513"/><use xlink:href="#7" y="8.684"/><use xlink:href="#56" y="10.855"/><use xlink:href="#57" y="13.026"/><use xlink:href="#7" y="15.197"/><use xlink:href="#37" y="17.368"/><use xlink:href="#58" y="19.539"/><use xlink:href="#59" y="21.71"/><use xlink:href="#60" y="28.223"/><use xlink:href="#61" y="30.394"/><use xlink:href="#62" y="32.565"/><use xlink:href="#63" y="34.736"/><use xlink:href="#64" y="36.907"/><use xlink:href="#65" y="41.249"/></svg><svg x="1922"><use xlink:href="#a"/><use xlink:href="#b" x="1.996" y="45.566"/><use xlink:href="#10"/><use xlink:href="#46" y="2.171"/><use xlink:href="#54" y="4.342"/><use xlink:href="#55" y="6.513"/><use xlink:href="#7" y="8.684"/><use xlink:href="#56" y="10.855"/><use xlink:href="#57" y="13.026"/><use xlink:href="#7" y="15.197"/><use xlink:href="#37" y="17.368"/><use xlink:href="#58" y="19.539"/><use xlink:href="#59" y="21.71"/><use xlink:href="#60" y="28.223"/><use xlink:href="#61" y="30.394"/><use xlink:href="#62" y="32.565"/><use xlink:href="#63" y="34.736"/><use xlink:href="#64" y="36.907"/><use xlink:href="#65" y="41.249"/><use xlink:href="#1" y="45.591"/></svg><svg x="1984"><use xlink:href="#a"/><use xlink:href="#b" x="-.004" y="45.566"/><use xlink:href="#46"/><use xlink:href="#54" y="2.171"/><use xlink:href="#55" y="4.342"/><use xlink:href="#7" y="6.513"/><use xlink:href="#56" y="8.684"/><use xlink:href="#57" y="10.855"/><use xlink:href="#7" y="13.026"/><use xlink:href="#37" y="15.197"/><use xlink:href="#58" y="17.368"/><use xlink:href="#59" y="19.539"/><use xlink:href="#60" y="26.052"/><use xlink:href="#61" y="28.223"/><use xlink:href="#62" y="30.394"/><use xlink:href="#63" y="32.565"/><use xlink:href="#64" y="34.736"/><use xlink:href="#65" y="39.078"/><text y="45.09" class="f">$</text><text x="2.004" y="45.09" class="f">logout</text></svg></svg></g></g></svg></svg>